PathFileType	4	(X/Y/Z)	G:\GRF\jawan data\CompiledGRF\03. Mohit Kumar\0231~ac~Walking 01_markers.trc
DataRate	CameraRate	NumFrames	NumMarkers	Units	OrigDataRate	OrigDataStartFrame	OrigNumFrames
100.000000	100.000000	7	18	mm	100.000000	201	805
Frame#	Time	c7			r should			l should			sacrum			r asis			r bar 1			r knee 1			r bar 2			r mall			r heel			r met			l asis			l bar 1			l knee 1			l bar 2			l mall			l heel			l met			
		X1	Y1	Z1	X2	Y2	Z2	X3	Y3	Z3	X4	Y4	Z4	X5	Y5	Z5	X6	Y6	Z6	X7	Y7	Z7	X8	Y8	Z8	X9	Y9	Z9	X10	Y10	Z10	X11	Y11	Z11	X12	Y12	Z12	X13	Y13	Z13	X14	Y14	Z14	X15	Y15	Z15	X16	Y16	Z16	X17	Y17	Z17	X18	Y18	Z18	

202	2.01	-1518.995361328125	1515.310302734375	249.2487640380859	-1441.260864257813	1447.908569335938	420.8231201171875	-1426.397827148438	1465.253784179688	86.69760894775391	-1577.027465820313	1044.822143554688	248.3980865478516	nan	nan	nan	-1344.842163085938	613.3396606445313	449.9957885742188	-1298.558715820313	540.638916015625	401.2792663574219	-1258.504150390625	219.1491241455078	434.753173828125	-1199.729736328125	95.30931091308594	380.2194519042969	-1238.99365234375	42.75547027587891	327.6449890136719	-1052.687744140625	107.1957321166992	379.656494140625	-1394.7470703125	1011.839965820313	110.5960922241211	-1523.533325195313	596.5028076171875	62.24101638793945	-1524.967163085938	507.9256286621094	121.8474578857422	-1645.140991210938	254.1202545166016	78.76903533935547	nan	nan	nan	nan	nan	nan	nan	nan	nan	
203	2.02	-1510.56689453125	1514.687866210938	250.6995849609375	-1432.721435546875	1447.12744140625	422.2250671386719	-1418.230590820313	1464.738037109375	87.90453338623047	-1568.180908203125	1044.243408203125	249.7029571533203	nan	nan	nan	-1336.60888671875	612.3561401367188	449.9559326171875	-1290.68896484375	539.8222045898438	401.2691040039063	-1246.486694335938	218.7682952880859	435.0983581542969	-1187.522216796875	95.922607421875	380.0211486816406	-1226.306640625	42.43986129760742	328.1341857910156	-1039.287109375	108.2165985107422	378.4212036132813	-1386.855346679688	1011.495239257813	110.9833984375	-1517.762939453125	596.6532592773438	62.64788055419922	-1519.354248046875	507.6538391113281	121.8498611450195	-1642.801147460938	254.8494873046875	78.90736389160156	nan	nan	nan	nan	nan	nan	nan	nan	nan	
204	2.03	-1502.182983398438	1514.135620117188	252.20849609375	-1424.827026367188	1446.701904296875	423.9339294433594	-1410.11669921875	1464.355712890625	89.19197845458984	-1559.173583984375	1043.807495117188	250.9957885742188	nan	nan	nan	-1328.038208007813	611.6484985351563	449.9863891601563	-1281.917602539063	538.8990478515625	401.3014221191406	-1235.762817382813	218.2324371337891	435.1384582519531	-1177.090087890625	96.02969360351563	379.5677490234375	-1215.115234375	41.26558303833008	328.46484375	-1031.679931640625	108.7768859863281	377.1059875488281	-1379.119384765625	1011.207824707031	111.3811721801758	-1511.646240234375	596.7236938476563	63.05622863769531	-1513.303344726563	507.2649230957031	121.8743438720703	-1639.25390625	255.7568817138672	79.13771820068359	nan	nan	nan	nan	nan	nan	nan	nan	nan	
205	2.04	-1493.688110351563	1513.609619140625	253.8053436279297	-1417.10009765625	1446.469360351563	425.7171936035156	-1402.014526367188	1464.08935546875	90.54927062988281	-1550.065063476563	1043.528076171875	252.2885437011719	nan	nan	nan	-1318.944213867188	610.9876708984375	450.0441284179688	-1272.991821289063	538.2360229492188	401.2765808105469	-1226.460083007813	217.4554748535156	434.9917602539063	-1167.654907226563	94.89152526855469	379.0876159667969	-1205.424560546875	39.28665542602539	328.5909729003906	nan	nan	nan	-1370.925415039063	1010.710266113281	111.9954452514648	-1504.92333984375	596.7465209960938	63.4466552734375	-1507.10009765625	507.1244812011719	122.0701293945313	-1635.312133789063	256.9562072753906	79.31947326660156	-1708.696166992188	98.835205078125	148.4816741943359	nan	nan	nan	nan	nan	nan	
206	2.05	-1485.15869140625	1513.118041992188	255.4603881835938	-1409.29150390625	1446.336791992188	427.492431640625	-1393.749755859375	1463.869750976563	91.96038818359375	-1540.76123046875	1043.281982421875	253.5757446289063	nan	nan	nan	-1309.395629882813	610.423828125	450.1757507324219	-1263.735595703125	537.6641235351563	401.2418212890625	-1218.406616210938	216.4749755859375	434.64306640625	-1160.416137695313	93.51184844970703	378.4410400390625	-1198.784790039063	38.28511428833008	327.758056640625	nan	nan	nan	-1361.915161132813	1010.136352539063	112.8749542236328	-1497.875244140625	596.8936767578125	63.9106559753418	-1500.20458984375	506.8111572265625	122.3894805908203	-1632.410766601563	258.6378479003906	78.96486663818359	nan	nan	nan	nan	nan	nan	nan	nan	nan	
207	2.06	-1476.526611328125	1512.608276367188	257.1434936523438	-1401.109985351563	1446.180541992188	429.3034973144531	-1385.403442382813	1463.751342773438	93.49854278564453	-1531.22705078125	1043.023071289063	254.9121398925781	nan	nan	nan	-1299.406616210938	609.802734375	450.2963562011719	-1254.213256835938	537.0748291015625	401.1558837890625	-1211.518676757813	215.2333831787109	434.0977172851563	-1155.236694335938	91.92778015136719	377.5264892578125	-1195.692749023438	38.38163375854492	326.787353515625	-1005.378845214844	101.8762817382813	370.0243530273438	-1352.43798828125	1009.474060058594	113.8845596313477	-1489.7880859375	596.5438842773438	64.17014312744141	-1492.880737304688	506.4890441894531	122.7037734985352	-1629.5556640625	260.7839660644531	78.64550018310547	nan	nan	nan	nan	nan	nan	nan	nan	nan	
208	2.07	-1467.969848632813	1512.119018554688	258.9110717773438	-1392.485229492188	1445.968505859375	431.1224670410156	-1376.91748046875	1463.717163085938	95.11290740966797	-1521.380737304688	1042.713500976563	256.2732543945313	nan	nan	nan	-1289.235229492188	609.3329467773438	450.4042358398438	-1244.605712890625	536.6199951171875	401.0143737792969	-1205.759033203125	213.7391510009766	433.3934936523438	-1151.273315429688	89.70232391357422	376.5010681152344	-1193.154541015625	37.11759948730469	325.8668518066406	-1003.302795410156	98.65339660644531	368.59716796875	-1343.084106445313	1008.970642089844	114.9791030883789	-1481.367553710938	596.21630859375	64.40660095214844	-1485.21728515625	506.1027526855469	122.8277130126953	-1625.368774414063	262.3514709472656	78.49382019042969	-1700.574096679688	107.6146469116211	147.6777648925781	nan	nan	nan	nan	nan	nan	
